# xmcd
#
# Track frame offsets: 
#        150
#        17780
#        37012
#        52403
#        73866
#        87632
#        106637
#        124559
#        141676
#        154950
#        172563
#        187440
#        204968
#        223052
#
# Disc length: 3170 seconds
#
# Revision: 1
# Processed by: cddbd v1.5.2PL0 Copyright (c) Steve Scherf et al.
# Submitted via: ExactAudioCopy v0.99pb5
#
DISCID=d80c600e
DTITLE=Omarion - 21
DYEAR=2006
DGENRE=R&B
TTITLE0=Entourage
TTITLE1=Ice Box
TTITLE2=Electric
TTITLE3=Made For TV
TTITLE4=Just Can't Let You Go
TTITLE5=Obsession
TTITLE6=Midnight
TTITLE7=Just That Sexy
TTITLE8=Beg For It
TTITLE9=Do It
TTITLE10=Been With A Star
TTITLE11=What Are We Doing
TTITLE12=The Making Of You
TTITLE13=The Truth
EXTD=
EXTT0=
EXTT1=
EXTT2=
EXTT3=
EXTT4=
EXTT5=
EXTT6=
EXTT7=
EXTT8=
EXTT9=
EXTT10=
EXTT11=
EXTT12=
EXTT13=
PLAYORDER=
